<svg height="798" width="720" xmlns="http://www.w3.org/2000/svg">
<rect height="798" fill="#555" width="720"></rect>
<text fill="#7f7" font-family="Courier New" font-size="12" xml:space="preserve">
<tspan x="10" y="26">3 megabytes installed</tspan>
<tspan x="10" y="42"></tspan>
<tspan x="10" y="58">node_modules</tspan>
<tspan x="10" y="74">└─┬ license-checker@9.0.3 </tspan>
<tspan x="10" y="90">  ├─┬ chalk@0.5.1 </tspan>
<tspan x="10" y="106">  │ ├── ansi-styles@1.1.0 </tspan>
<tspan x="10" y="122">  │ ├── escape-string-regexp@1.0.5 </tspan>
<tspan x="10" y="138">  │ ├─┬ has-ansi@0.1.0 </tspan>
<tspan x="10" y="154">  │ │ └── ansi-regex@0.2.1 </tspan>
<tspan x="10" y="170">  │ ├── strip-ansi@0.3.0 </tspan>
<tspan x="10" y="186">  │ └── supports-color@0.2.0 </tspan>
<tspan x="10" y="202">  ├─┬ debug@2.6.4 </tspan>
<tspan x="10" y="218">  │ └── ms@0.7.3 </tspan>
<tspan x="10" y="234">  ├── mkdirp@0.3.5 </tspan>
<tspan x="10" y="250">  ├─┬ nopt@2.2.1 </tspan>
<tspan x="10" y="266">  │ └── abbrev@1.1.0 </tspan>
<tspan x="10" y="282">  ├─┬ read-installed@4.0.3 </tspan>
<tspan x="10" y="298">  │ ├── debuglog@1.0.1 </tspan>
<tspan x="10" y="314">  │ ├── graceful-fs@4.1.11 </tspan>
<tspan x="10" y="330">  │ ├─┬ read-package-json@2.0.5 </tspan>
<tspan x="10" y="346">  │ │ ├─┬ glob@7.1.1 </tspan>
<tspan x="10" y="362">  │ │ │ ├── fs.realpath@1.0.0 </tspan>
<tspan x="10" y="378">  │ │ │ ├── inflight@1.0.6 </tspan>
<tspan x="10" y="394">  │ │ │ ├── inherits@2.0.3 </tspan>
<tspan x="10" y="410">  │ │ │ ├─┬ minimatch@3.0.3 </tspan>
<tspan x="10" y="426">  │ │ │ │ └─┬ brace-expansion@1.1.7 </tspan>
<tspan x="10" y="442">  │ │ │ │   ├── balanced-match@0.4.2 </tspan>
<tspan x="10" y="458">  │ │ │ │   └── concat-map@0.0.1 </tspan>
<tspan x="10" y="474">  │ │ │ └── path-is-absolute@1.0.1 </tspan>
<tspan x="10" y="490">  │ │ ├─┬ json-parse-helpfulerror@1.0.3 </tspan>
<tspan x="10" y="506">  │ │ │ └── jju@1.3.0 </tspan>
<tspan x="10" y="522">  │ │ └─┬ normalize-package-data@2.3.8 </tspan>
<tspan x="10" y="538">  │ │   ├── hosted-git-info@2.4.2 </tspan>
<tspan x="10" y="554">  │ │   ├─┬ is-builtin-module@1.0.0 </tspan>
<tspan x="10" y="570">  │ │   │ └── builtin-modules@1.1.1 </tspan>
<tspan x="10" y="586">  │ │   └─┬ validate-npm-package-license@3.0.1 </tspan>
<tspan x="10" y="602">  │ │     ├─┬ spdx-correct@1.0.2 </tspan>
<tspan x="10" y="618">  │ │     │ └── spdx-license-ids@1.2.2 </tspan>
<tspan x="10" y="634">  │ │     └── spdx-expression-parse@1.0.4 </tspan>
<tspan x="10" y="650">  │ ├─┬ readdir-scoped-modules@1.0.2 </tspan>
<tspan x="10" y="666">  │ │ ├─┬ dezalgo@1.0.3 </tspan>
<tspan x="10" y="682">  │ │ │ ├── asap@2.0.5 </tspan>
<tspan x="10" y="698">  │ │ │ └── wrappy@1.0.2 </tspan>
<tspan x="10" y="714">  │ │ └── once@1.4.0 </tspan>
<tspan x="10" y="730">  │ ├── slide@1.1.6 </tspan>
<tspan x="10" y="746">  │ └── util-extend@1.0.3 </tspan>
<tspan x="10" y="762">  ├── semver@5.3.0 </tspan>
<tspan x="10" y="778">  └── treeify@1.0.1</tspan>
</text>
</svg>
